<svg width="241" height="133" viewBox="0 0 241 133" fill="none" xmlns="http://www.w3.org/2000/svg">
<path d="M90.2201 60.2721L91.015 61.4425V61.5127H91.1085C91.9268 61.5361 92.8386 61.5595 93.914 61.5595C94.5219 61.5595 95.1297 61.5595 95.7142 61.5595H97.1637C97.8884 61.5595 98.6366 61.5361 99.3847 61.5361C104.341 61.5361 108.456 61.817 112.384 63.1511C114.955 64.1342 116.522 65.1875 118.813 66.4983H118.836L119.444 66.8728L119.608 66.9664V66.709C119.561 62.8469 119.561 58.9145 119.561 55.1227H120.66V66.9664L120.8 66.8962H120.87C121.174 66.709 121.455 66.5451 121.712 66.4047C121.922 66.2876 126.06 63.9236 127.673 63.4554C133.378 61.6999 137.423 61.5595 141.748 61.5595C142.496 61.5595 143.267 61.5595 144.062 61.5595H144.834C145.488 61.5595 146.19 61.5595 146.891 61.5595C147.335 61.5595 147.803 61.5595 148.27 61.5595H148.341V61.5127L148.645 61.1616C150.468 58.7507 152.222 56.4803 153.975 54.2332V0.63198H133.682C131.741 0.63198 129.52 1.54484 127.533 3.13649V0H112.5V2.97265C110.42 1.0533 107.661 0.63198 105.697 0.63198H86.1521V0.795826C86.1054 18.5615 86.1054 36.608 86.1054 54.0694V54.1396C87.4613 56.176 88.8407 58.2592 90.1733 60.2721H90.2201ZM120.262 6.83474C120.262 6.83474 124.143 4.5643 125.523 3.72166V9.97124C123.863 8.98816 122.109 7.93486 120.262 6.83474ZM123.161 12.3353H116.896C117.995 10.4628 119.023 8.73068 120.052 7.0454C120.964 8.59024 123.161 12.3353 123.161 12.3353ZM123.161 1.35759C122.25 2.92583 120.052 6.64749 120.052 6.64749C119.07 5.03243 118.065 3.37056 116.896 1.35759H123.161ZM114.511 3.72166C116.381 4.84518 118.111 5.85166 119.818 6.83474C119.023 7.30288 115.493 9.38607 114.511 9.97124V3.72166ZM87.3678 1.84913H105.978C108.69 1.94275 109.975 2.62155 112.524 4.63452V12.8034H112.594C115.563 14.1142 117.948 15.1207 120.122 16.0336H120.216C122.624 14.9803 125.055 13.9036 127.51 12.8503H127.58V4.68133C129.988 2.8088 131.601 2.01297 133.331 1.84913H152.829V52.9927C150.936 53.1331 149.019 53.2267 147.172 53.3204H147.102C142.589 53.531 137.914 53.7651 133.495 54.7014C128.679 55.7312 124.961 57.557 121.595 60.2955V54.0928H118.673V60.2721C114.628 57.1356 109.952 55.0993 103.944 54.0226C98.5664 53.0629 93.049 52.9693 87.4146 52.9693V1.84913H87.3678Z" fill="#575756"/>
<path d="M127.533 18.5849H112.524V52.3139H127.533V18.5849ZM113.576 19.6382H126.481V32.5821L120.028 27.6433L113.576 32.5352V19.6382ZM120.519 37.2868V29.3519L123.185 31.3883V39.5572C122.109 38.6444 121.081 37.7783 120.519 37.2868ZM126.481 42.366C125.897 41.8745 125.078 41.1723 124.237 40.4467V32.1841L126.481 33.9162V42.366ZM113.576 42.3895V33.8694L115.961 32.0671V40.3765L113.576 42.3895ZM119.467 37.4038L117.013 39.487V31.2713L119.467 29.3988V37.4038ZM126.481 50.9329H113.529L113.576 44.1684L119.888 38.8316L120.028 38.7146L126.434 44.1684V50.9329H126.481Z" fill="#575756"/>
<path d="M134.243 24.3429C132.536 28.1348 130.76 32.0437 129.637 34.6418L129.591 34.7355V47.9368H150.538V43.8407L150.234 43.7002C146.704 41.8511 142.893 39.8147 138.895 37.6847C141.467 35.11 143.688 32.0671 145.371 28.7434C145.862 27.7369 146.33 26.7538 146.727 25.7239C148.808 20.5042 149.603 14.91 148.995 9.52651L148.948 9.01156H129.567V13.2716H139.223C137.984 16.1038 136.16 20.1297 134.524 23.7109L134.243 24.3429ZM145.395 10.0649H148.013C148.504 15.1441 147.733 20.4106 145.769 25.326C145.652 25.6303 145.512 25.9112 145.395 26.2155V10.0649ZM130.643 34.9695C131.157 33.7758 131.812 32.3246 132.536 30.7329V41.8043C131.812 42.3895 131.134 42.9044 130.643 43.2555V34.9695ZM149.486 44.496V46.9069H130.643V44.5663C131.04 44.2854 132.209 43.3959 133.542 42.3426H133.588V42.2958C133.986 41.9681 134.383 41.6404 134.804 41.3127C136.324 40.0488 137.586 38.9253 138.101 38.4337C142.122 40.5871 145.933 42.6235 149.486 44.496ZM141.467 10.7905L141.794 10.0649H144.366V28.4391C143.525 30.0541 142.566 31.6224 141.491 33.0736V10.7905H141.467ZM130.643 12.2183V10.0649H140.626L139.69 12.2183H130.643ZM137.516 19.685C138.592 17.2741 139.62 14.9803 140.392 13.2248V34.4312C139.527 35.4845 138.615 36.491 137.633 37.4272C137.633 37.4272 137.586 37.4741 137.493 37.5443V19.685H137.516ZM135.482 24.1557C135.809 23.4535 136.113 22.7513 136.441 22.0257V38.5039C135.833 39.0423 135.015 39.7679 134.103 40.5403C133.916 40.6808 133.752 40.8446 133.565 40.9851V28.4157C134.103 27.2219 134.64 26.0048 135.202 24.8111L135.482 24.1791V24.1557Z" fill="#575756"/>
<path d="M110.139 34.7355L110.092 34.6418C108.97 32.0437 107.193 28.1348 105.463 24.3429L105.183 23.7109C104.364 21.9086 103.499 19.9893 102.681 18.1636C102.728 17.7656 102.938 16.5251 103.616 15.5888C104.107 14.91 104.575 14.3249 105.72 13.8333C107.217 13.1779 109.625 13.2248 109.648 13.2248H110.186L110.139 8.98815H90.7812L90.7111 9.5031C90.1032 14.8866 90.8747 20.4808 92.9788 25.7005C94.9193 30.5457 96.9533 33.729 100.156 36.8655C100.156 36.8655 100.203 36.9123 100.25 36.9591C99.2912 38.6912 97.8417 40.9148 95.9714 41.9213C94.0543 42.9512 91.693 43.747 89.659 44.0513L89.2148 44.1215V47.9368H110.162V34.7355H110.139ZM107.17 30.6627C107.895 32.2778 108.549 33.7524 109.087 34.9461V43.2321C108.596 42.8576 107.918 42.3426 107.17 41.7575V30.6393V30.6627ZM103.242 21.9554C103.57 22.681 103.897 23.4301 104.224 24.1323L104.505 24.7642C105.042 25.958 105.58 27.1517 106.118 28.3221V40.9148C105.954 40.7744 105.791 40.6574 105.627 40.5169C104.855 39.8849 104.014 39.0891 103.219 38.3635V21.932L103.242 21.9554ZM94.3114 26.192C94.1945 25.9112 94.0776 25.6069 93.9607 25.3026C91.9969 20.3872 91.2254 15.1207 91.7164 10.0415H94.3114V26.192ZM98.2391 10.7437V33.1438C97.1637 31.7394 96.2285 30.218 95.3635 28.4859V10.0649H97.9352L98.2391 10.7437ZM109.087 10.0649V12.1949C108.245 12.1949 106.562 12.3353 105.276 12.8737C103.92 13.4822 103.289 14.2312 102.751 14.9803C102.377 15.4952 102.12 16.057 101.956 16.5719C101.278 15.0505 100.647 13.6695 100.156 12.5226L99.0808 10.0415H109.064L109.087 10.0649ZM99.2912 34.4546V13.1545C100.063 14.91 101.091 17.2039 102.167 19.6148V37.3804C101.933 37.1464 101.255 36.4676 101.255 36.4676C100.554 35.7888 99.899 35.11 99.2912 34.4312V34.4546ZM109.087 46.9069H90.2435V45.0344C92.2775 44.6599 94.5686 43.8641 96.4623 42.8576C98.4963 41.7809 99.9926 39.5338 101.021 37.7315C102.003 38.6912 103.616 40.236 104.972 41.3596C105.346 41.6872 105.744 41.9915 106.118 42.2958V42.3426H106.188C107.497 43.3725 108.666 44.2386 109.087 44.5663V46.9069Z" fill="#575756"/>
<path d="M119.467 29.3988L117.013 31.2713V39.487L119.467 37.4038V29.3988Z" fill="#D51317"/>
<path d="M123.185 31.3883L120.519 29.3519V37.2868C121.081 37.7783 122.109 38.6444 123.185 39.5572V31.3883Z" fill="#D51317"/>
<path d="M124.237 32.2076V40.4701C125.078 41.1957 125.897 41.8745 126.481 42.3895V33.9396L124.237 32.2076Z" fill="#D51317"/>
<path d="M115.961 32.0671L113.576 33.8694V42.3895L115.961 40.3765V32.0671Z" fill="#D51317"/>
<path d="M120.052 38.7146L119.888 38.855L113.576 44.1684L113.529 50.9329H126.481V44.1684L120.052 38.738V38.7146Z" fill="#D51317"/>
<path d="M175.718 111.697C175.344 112.188 175.016 112.726 174.876 113.078C174.432 114.271 175.414 114.646 176.115 114.646C176.816 114.646 177.144 114.552 177.144 114.552L176.419 116.027C176.419 116.027 176.115 116.12 175.601 116.12C174.502 116.12 172.865 115.886 172.865 114.131C172.865 112.843 173.847 111.977 174.221 111.697H175.718Z" fill="#575756"/>
<path d="M56.4606 90.8646L54.5669 84.4278C54.3565 83.7256 54.2396 83.3511 54.2162 83.2575C54.0058 82.7191 53.7019 82.3212 53.3278 82.0637V81.9935H56.9516L58.9622 89.6475H59.0323C59.1492 89.1793 59.2661 88.7346 59.383 88.2665C59.6869 87.0493 59.9207 86.1833 60.061 85.6215C60.2948 84.6385 60.4351 84.1001 60.4351 84.0299C60.4351 83.6086 60.3649 83.2107 60.2013 82.8127C60.061 82.4382 59.874 82.1808 59.6636 82.0169H63.1938L63.1003 82.4382C63.1003 82.4382 63.7783 84.8725 65.1109 89.6007L66.7474 84.0533C66.7942 83.866 66.8176 83.7256 66.8176 83.6554C66.8176 83.5852 66.8176 83.4681 66.8176 83.3277C66.8176 83.0702 66.7708 82.8362 66.6773 82.6489C66.5838 82.4616 66.4435 82.251 66.2565 82.0169H69.062L65.6486 93.2287C65.1577 93.0649 64.7602 92.9244 64.4797 92.8074C64.1991 92.6904 63.9186 92.5265 63.6614 92.3392C63.147 92.0116 62.6795 91.1923 62.3054 89.905C61.8378 88.3367 61.5105 87.2132 61.2767 86.5344L59.5467 93.2287C58.7752 93.018 58.1673 92.784 57.7231 92.5031C57.0217 92.0818 56.6009 91.5434 56.4139 90.8646H56.4606Z" fill="#575756"/>
<path d="M72.8494 87.9856L70.3244 83.2106C70.114 82.8361 69.9504 82.5787 69.8335 82.4382C69.7166 82.2978 69.5296 82.1574 69.3191 82.0169H73.2001L75.1405 85.9726L76.0991 84.0065C76.1926 83.749 76.2861 83.5149 76.3329 83.3277C76.403 83.1404 76.4264 82.9766 76.4264 82.8596C76.4264 82.6723 76.3796 82.5085 76.3095 82.368C76.2394 82.2276 76.1225 82.1105 75.9354 82.0169H78.9513L75.9354 88.009V90.8178C75.9354 91.2625 75.9588 91.6136 76.0289 91.8711C76.1458 92.2924 76.3563 92.6435 76.6836 92.9478V93.018H72.1246V92.9478C72.3818 92.8074 72.5688 92.5733 72.6857 92.2924C72.8026 92.0116 72.8494 91.7073 72.8494 91.3796V87.9856Z" fill="#575756"/>
<path d="M78.9513 92.9946L83.9545 83.5852L82.4816 83.5383C82.014 83.5383 81.5464 83.6086 81.0788 83.749C80.6113 83.8894 80.1437 84.1001 79.7229 84.3576L80.6113 81.9701H88.2796L83.3466 91.2391C83.6739 91.2391 84.0948 91.2625 84.6091 91.3093C85.1234 91.3562 85.4274 91.3796 85.5676 91.3796C86.1755 91.3796 86.7366 91.3094 87.2042 91.1689C87.6951 91.0285 88.2562 90.7476 88.8875 90.3497L87.9757 92.9946H78.9513ZM84.1883 77.8505C84.6091 77.8505 84.9832 78.0144 85.2871 78.3187C85.591 78.6229 85.7547 79.0209 85.7547 79.4656C85.7547 79.9103 85.591 80.2848 85.2871 80.5891C84.9832 80.9168 84.6091 81.0572 84.1649 81.0572C83.7207 81.0572 83.3466 80.8934 83.0193 80.5891C82.7154 80.2848 82.5517 79.9103 82.5517 79.4422C82.5517 78.974 82.7154 78.6229 83.0193 78.2953C83.3232 77.991 83.7207 77.8271 84.1649 77.8271L84.1883 77.8505Z" fill="#575756"/>
<path d="M89.8928 92.5967L89.3317 90.1858C89.7759 90.5837 90.337 90.9114 90.9916 91.1455C91.6462 91.3796 92.2541 91.52 92.8386 91.52C93.3295 91.52 93.727 91.4264 94.0543 91.2391C94.3816 91.0519 94.5452 90.771 94.592 90.4199C94.592 89.9518 94.3582 89.5539 93.8672 89.2028C93.6568 89.0623 93.1659 88.8048 92.3943 88.4303C91.4124 87.9856 90.6877 87.4941 90.2668 86.9791C89.7759 86.394 89.5421 85.6215 89.5421 84.7087C89.6122 83.7724 90.0331 83.0468 90.8046 82.5085C91.5761 81.9935 92.558 81.736 93.7503 81.736C94.1945 81.736 94.6387 81.7594 95.0362 81.8297C95.4336 81.8999 95.9246 82.0169 96.5091 82.2276V84.1937C96.0649 83.9363 95.6674 83.7256 95.27 83.6086C94.8725 83.4915 94.4985 83.4213 94.1712 83.4213C93.3529 83.4213 92.8619 83.7958 92.6983 84.5214C92.6983 84.9662 93.0957 85.3641 93.8672 85.7152C94.2179 85.879 94.592 86.0195 94.9427 86.1599C96.0181 86.6982 96.7663 87.26 97.1871 87.8686C97.5378 88.3601 97.7248 88.9453 97.7248 89.6007V89.9752C97.6079 91.1221 97.0702 91.9882 96.1116 92.5499C95.3167 93.018 94.3348 93.2521 93.1659 93.2521C92.5814 93.2521 91.9969 93.2053 91.4358 93.0883C90.8747 92.9712 90.3837 92.8308 89.9395 92.6435L89.8928 92.5967Z" fill="#575756"/>
<path d="M98.0053 92.9946L103.008 83.5852L101.536 83.5383C101.068 83.5383 100.6 83.6086 100.133 83.749C99.6653 83.8894 99.1977 84.1001 98.7769 84.3576L99.6653 81.9701H107.334L102.401 91.2391C102.728 91.2391 103.149 91.2625 103.663 91.3093C104.177 91.3562 104.481 91.3796 104.622 91.3796C105.229 91.3796 105.791 91.3094 106.258 91.1689C106.749 91.0285 107.31 90.7476 107.941 90.3497L107.03 92.9946H98.0053Z" fill="#575756"/>
<path d="M109.321 90.4901L111.565 83.9831C111.565 83.9831 111.612 83.7958 111.682 83.5618C111.752 83.3277 111.776 83.1404 111.776 82.9766C111.776 82.7893 111.729 82.6021 111.635 82.4616C111.542 82.2978 111.378 82.1573 111.144 81.9935H115.212L118.462 90.7242C118.649 91.2859 118.836 91.7073 119.023 91.9881C119.21 92.269 119.467 92.5733 119.841 92.901V92.9712H114.768V92.901C115.212 92.6435 115.446 92.3158 115.446 91.9413C115.446 91.7775 115.446 91.6605 115.446 91.5902C115.446 91.52 115.399 91.3796 115.329 91.2157L114.815 89.6241H111.495L111.004 91.0285C110.957 91.1689 110.911 91.3328 110.864 91.52C110.817 91.7073 110.794 91.8477 110.77 91.9647C110.77 92.152 110.817 92.2924 110.911 92.4329C111.004 92.5733 111.168 92.7138 111.378 92.8776V92.9478H107.965V92.8776C108.316 92.5967 108.596 92.1988 108.806 91.7307C108.923 91.4966 109.087 91.0519 109.297 90.4199L109.321 90.4901ZM111.986 88.1026H114.277L113.108 84.7555L111.986 88.1026Z" fill="#575756"/>
<path d="M124.658 92.5967L124.096 90.1858C124.541 90.5837 125.102 90.9114 125.756 91.1455C126.411 91.3796 127.019 91.52 127.603 91.52C128.094 91.52 128.492 91.4264 128.819 91.2391C129.146 91.0519 129.31 90.771 129.357 90.4199C129.357 89.9518 129.123 89.5539 128.632 89.2028C128.422 89.0623 127.931 88.8048 127.159 88.4303C126.177 87.9856 125.452 87.4941 125.032 86.9791C124.541 86.394 124.307 85.6215 124.307 84.7087C124.377 83.7724 124.798 83.0468 125.569 82.5085C126.341 81.9935 127.323 81.736 128.515 81.736C128.959 81.736 129.404 81.7594 129.801 81.8297C130.198 81.8765 130.689 82.0169 131.274 82.2276V84.1937C130.83 83.9363 130.432 83.7256 130.035 83.6086C129.637 83.4915 129.263 83.4213 128.936 83.4213C128.118 83.4213 127.627 83.7958 127.463 84.5214C127.463 84.9662 127.86 85.3641 128.632 85.7152C128.983 85.879 129.357 86.0195 129.707 86.1599C130.783 86.6982 131.531 87.26 131.952 87.8686C132.303 88.3601 132.49 88.9453 132.49 89.6007V89.9752C132.373 91.1221 131.835 91.9882 130.876 92.5499C130.082 93.018 129.1 93.2521 127.931 93.2521C127.346 93.2521 126.762 93.2053 126.201 93.0883C125.639 92.9712 125.149 92.8308 124.704 92.6435L124.658 92.5967Z" fill="#575756"/>
<path d="M132.77 92.9946L137.773 83.5852L136.3 83.5383C135.833 83.5383 135.365 83.6086 134.898 83.749C134.43 83.8894 133.962 84.1001 133.542 84.3576L134.43 81.9701H142.098L137.165 91.2391C137.493 91.2391 137.914 91.2625 138.428 91.3093C138.942 91.3562 139.246 91.3796 139.386 91.3796C139.994 91.3796 140.555 91.3094 141.023 91.1689C141.514 91.0285 142.075 90.7476 142.706 90.3497L141.794 92.9946H132.77Z" fill="#575756"/>
<path d="M147.125 91.4264C147.125 91.7775 147.172 92.0818 147.289 92.3392C147.405 92.5967 147.592 92.784 147.85 92.9244V92.9946H143.337V92.9244C143.595 92.7606 143.782 92.5499 143.899 92.269C143.992 91.9881 144.039 91.7073 144.039 91.403V83.8426C144.039 83.3511 144.015 83 143.945 82.7659C143.852 82.4382 143.641 82.1808 143.337 81.9701H147.85C147.592 82.1105 147.405 82.3446 147.289 82.6255C147.172 82.9298 147.125 83.2107 147.125 83.4681V86.9089L149.252 84.2405C149.393 84.0533 149.533 83.866 149.697 83.6788C149.884 83.3979 149.977 83.1404 149.977 82.9064C149.977 82.7191 149.93 82.5319 149.837 82.3914C149.743 82.2276 149.58 82.0871 149.323 81.9701H153.437L149.743 86.4174L152.853 91.3093C152.993 91.5434 153.133 91.7775 153.297 92.0116C153.531 92.3627 153.811 92.6669 154.092 92.8776V92.9478H153.063C151.731 92.9478 150.819 92.8542 150.375 92.6903C149.907 92.5265 149.486 92.0818 149.112 91.403L147.148 88.0324V91.3562L147.125 91.4264Z" fill="#575756"/>
<path d="M153.554 87.2366C153.554 85.6684 154.139 84.3342 155.308 83.3043C156.477 82.251 157.973 81.736 159.82 81.736C161.667 81.736 163.233 82.2744 164.355 83.3745C165.407 84.4044 165.945 85.762 165.945 87.4238V87.4941C165.945 88.9453 165.501 90.1858 164.589 91.2625C163.467 92.5967 161.854 93.2521 159.75 93.2521C157.879 93.2521 156.36 92.6903 155.191 91.5434C154.092 90.4667 153.531 89.1325 153.531 87.5409V87.26L153.554 87.2366ZM156.757 87.2366C156.757 88.3367 157.014 89.2964 157.552 90.1156C158.136 91.0285 158.885 91.4966 159.843 91.4966C160.802 91.4966 161.48 91.1689 161.971 90.5135C162.438 89.905 162.649 89.0857 162.649 88.0324C162.649 86.8621 162.438 85.8556 162.041 85.013C161.503 83.9363 160.708 83.3745 159.68 83.3745C158.838 83.3745 158.16 83.7256 157.599 84.4278C157.038 85.13 156.781 85.9726 156.781 87.0025V87.2132L156.757 87.2366Z" fill="#575756"/>
<path d="M167.348 89.4602L166.623 89.7411V88.1261L167.348 87.8452V83.5383C167.348 83.1404 167.278 82.8127 167.137 82.5553C166.997 82.2978 166.834 82.1105 166.623 81.9935H171.112C170.808 82.1573 170.621 82.4616 170.504 82.8361C170.457 83.0468 170.411 83.3043 170.411 83.632V86.5344L172.117 85.8088V87.4004L170.411 88.1261V91.0987C170.621 91.2157 170.878 91.2859 171.182 91.3328C171.486 91.3796 171.767 91.403 172.047 91.403C172.678 91.403 173.193 91.3328 173.613 91.1689C173.801 91.0987 174.104 90.9349 174.525 90.6774L173.917 92.9946H166.623C166.95 92.7606 167.137 92.5031 167.231 92.1988C167.301 91.8945 167.348 91.4732 167.348 90.9114V89.4602Z" fill="#575756"/>
<path d="M176.325 90.4901L178.57 83.9831C178.57 83.9831 178.617 83.7958 178.687 83.5618C178.757 83.3277 178.78 83.1404 178.78 82.9766C178.78 82.7893 178.734 82.6021 178.64 82.4616C178.546 82.2978 178.383 82.1573 178.149 81.9935H182.217L185.467 90.7242C185.654 91.2859 185.841 91.7073 186.028 91.9881C186.215 92.269 186.472 92.5733 186.846 92.901V92.9712H181.773V92.901C182.217 92.6435 182.451 92.3158 182.451 91.9413C182.451 91.7775 182.451 91.6605 182.451 91.5902C182.451 91.52 182.404 91.3796 182.334 91.2157L181.82 89.6241H178.5L178.009 91.0285C177.962 91.1689 177.915 91.3328 177.868 91.52C177.822 91.7073 177.798 91.8477 177.775 91.9647C177.775 92.152 177.822 92.2924 177.915 92.4329C178.009 92.5733 178.172 92.7138 178.383 92.8776V92.9478H174.969V92.8776C175.32 92.5967 175.601 92.1988 175.811 91.7307C175.928 91.4966 176.092 91.0519 176.302 90.4199L176.325 90.4901ZM178.991 88.1026H181.282L180.113 84.7555L178.991 88.1026Z" fill="#575756"/>
<path d="M0.701374 109.847V103.153C0.701374 102.451 0.654616 101.983 0.584478 101.725C0.514341 101.468 0.327308 101.21 0 100.953H4.48879C4.18487 101.164 3.97445 101.444 3.90432 101.702C3.83418 101.959 3.78742 102.404 3.78742 103.013V109.918C3.78742 110.526 3.83418 110.971 3.9277 111.205C4.02121 111.462 4.20824 111.697 4.48879 111.907H0.0233791C0.327308 111.697 0.53772 111.416 0.631237 111.065C0.677995 110.854 0.724753 110.456 0.724753 109.847H0.701374Z" fill="#575756"/>
<path d="M6.14871 109.918V103.645C6.14871 102.942 6.07858 102.428 5.96168 102.123C5.84478 101.819 5.58761 101.444 5.16679 101V100.929H8.65028L13.7703 107.694V103.106C13.7703 102.638 13.7469 102.31 13.6768 102.076C13.5833 101.655 13.3729 101.281 13.0456 100.953H16.2485C15.9913 101.164 15.8043 101.468 15.6874 101.819C15.5705 102.17 15.5004 102.521 15.5004 102.872V112.282H15.4302C15.0328 112.282 14.4951 112.118 13.8171 111.814C12.9287 111.392 12.2507 110.877 11.7597 110.222L7.92553 105.072H7.85539V109.918C7.85539 110.386 7.92553 110.784 8.04242 111.088C8.15932 111.392 8.34635 111.65 8.60352 111.884V111.954H5.35382V111.884C5.58761 111.673 5.77465 111.439 5.91492 111.111C6.03182 110.807 6.10195 110.409 6.10195 109.918H6.14871Z" fill="#575756"/>
<path d="M17.7448 110.339V102.615C17.7448 102.193 17.698 101.866 17.5577 101.632C17.4408 101.398 17.2772 101.187 17.0434 101.023H22.9116C22.9116 101.023 23.122 101 23.2389 100.976C23.3324 100.976 23.4493 100.953 23.5662 100.906H23.6363V103.317C23.4493 103.013 23.1687 102.802 22.7947 102.708C22.5842 102.662 22.3271 102.615 22.0231 102.615H20.8308V105.33H22.0933C22.2102 105.33 22.3271 105.33 22.4206 105.33C22.5141 105.33 22.5842 105.307 22.6778 105.26H22.7713V107.624H22.6778C22.631 107.437 22.5141 107.273 22.3271 107.179C22.14 107.062 21.8361 107.015 21.4387 107.015H20.8542V109.73C20.8542 110.199 20.8776 110.55 20.9477 110.784C21.0646 111.275 21.275 111.673 21.6257 111.954V112.024H17.0902V111.954C17.3941 111.767 17.5811 111.509 17.698 111.158C17.7448 110.971 17.7915 110.69 17.7915 110.362L17.7448 110.339Z" fill="#575756"/>
<path d="M24.3611 106.196C24.3611 104.628 24.9455 103.294 26.1145 102.264C27.2835 101.21 28.7797 100.695 30.6267 100.695C32.4736 100.695 34.04 101.234 35.1622 102.334C36.2143 103.364 36.752 104.721 36.752 106.383V106.453C36.752 107.905 36.3078 109.145 35.396 110.222C34.2738 111.556 32.6607 112.211 30.5565 112.211C28.6862 112.211 27.1666 111.65 25.9976 110.503C24.8988 109.426 24.3377 108.092 24.3377 106.5V106.243L24.3611 106.196ZM27.564 106.196C27.564 107.296 27.8212 108.256 28.3589 109.075C28.9434 109.988 29.6915 110.456 30.6501 110.456C31.6086 110.456 32.2866 110.128 32.7776 109.473C33.2451 108.864 33.4555 108.045 33.4555 106.992C33.4555 105.821 33.2451 104.815 32.8477 103.972C32.31 102.872 31.5151 102.334 30.4864 102.334C29.6447 102.334 28.9668 102.685 28.4057 103.387C27.8446 104.089 27.5874 104.932 27.5874 105.962V106.173L27.564 106.196Z" fill="#575756"/>
<path d="M41.194 107.226V110.316C41.194 110.737 41.2642 111.065 41.3811 111.322C41.498 111.556 41.685 111.767 41.9188 111.884V111.954H37.43V111.884C37.7105 111.72 37.8976 111.509 37.9911 111.252C38.0846 110.994 38.1314 110.69 38.1314 110.339V102.755C38.1314 102.264 38.0846 101.913 38.0145 101.655C37.9443 101.398 37.7573 101.164 37.4534 100.976H42.9007C43.8359 100.953 44.6074 101.187 45.1919 101.678C45.8231 102.217 46.127 102.966 46.127 103.902C46.127 104.323 46.0101 104.721 45.7997 105.119C45.4724 105.704 44.9347 106.173 44.1632 106.57L46.3141 110.222C46.5479 110.596 46.7349 110.854 46.8518 110.994C47.1323 111.369 47.4363 111.673 47.7168 111.931L45.8231 112.071H44.9113C44.4905 112.071 44.1398 112.001 43.906 111.86C43.6488 111.72 43.4151 111.439 43.2046 111.018L41.2174 107.273L41.194 107.226ZM41.194 106.336C41.7318 106.266 42.1526 106.032 42.5033 105.658C42.8306 105.283 42.9942 104.838 42.9942 104.323C42.9942 103.809 42.8773 103.387 42.6202 103.083C42.3162 102.732 41.8954 102.545 41.3343 102.545H41.194V106.36V106.336Z" fill="#575756"/>
<path d="M48.5818 109.871L49.4001 102.708V102.31C49.4001 102.053 49.3534 101.819 49.2598 101.608C49.1663 101.398 49.0027 101.187 48.7689 100.953H52.6031L55.1046 107.39L57.0685 100.906H61.0429V100.976C60.8091 101.14 60.6455 101.281 60.5753 101.421C60.5052 101.538 60.4585 101.702 60.4351 101.913C60.4351 101.983 60.4585 102.076 60.4585 102.217L61.3001 109.801C61.3469 110.269 61.4404 110.667 61.5807 110.994C61.6975 111.322 61.908 111.603 62.1651 111.86V111.931H57.7699V111.86C57.9803 111.65 58.0972 111.486 58.1907 111.322C58.2608 111.158 58.3076 110.994 58.3076 110.83V110.199L57.7231 104.815H57.653L55.5021 112.141C54.5435 111.79 53.8655 111.439 53.4915 111.041C53.2343 110.76 53.0005 110.362 52.8135 109.824L50.9665 104.815H50.8964L50.3353 110.573C50.3353 110.901 50.4054 111.182 50.5223 111.392C50.6392 111.603 50.8262 111.767 51.06 111.884V111.954H47.8103V111.884C48.0909 111.65 48.2779 111.369 48.4182 111.018C48.5117 110.784 48.5819 110.386 48.6286 109.871H48.5818Z" fill="#575756"/>
<path d="M63.9887 109.45L66.2331 102.942C66.2331 102.942 66.2799 102.755 66.35 102.521C66.4201 102.287 66.4435 102.1 66.4435 101.936C66.4435 101.749 66.3968 101.561 66.3032 101.421C66.2097 101.257 66.0461 101.117 65.8123 100.953H69.8802L73.1299 109.684C73.317 110.245 73.504 110.667 73.691 110.948C73.8781 111.228 74.1352 111.533 74.5093 111.86V111.931H69.436V111.86C69.8802 111.603 70.114 111.275 70.114 110.901C70.114 110.737 70.114 110.62 70.114 110.55C70.114 110.479 70.0673 110.339 69.9971 110.175L69.4828 108.583H66.163L65.672 109.988C65.6252 110.128 65.5785 110.292 65.5317 110.479C65.485 110.667 65.4616 110.807 65.4382 110.924C65.4382 111.111 65.485 111.252 65.5785 111.392C65.672 111.533 65.8356 111.673 66.0461 111.837V111.907H62.6327V111.837C62.9834 111.556 63.2639 111.158 63.4744 110.69C63.5913 110.456 63.7549 110.011 63.9653 109.379L63.9887 109.45ZM66.6539 107.062H68.9451L67.7761 103.715L66.6539 107.062Z" fill="#575756"/>
<path d="M76.9408 109.824V102.802C76.8005 102.802 76.6368 102.755 76.4498 102.755C76.2627 102.755 76.1692 102.755 76.1225 102.755C75.7718 102.755 75.4211 102.825 75.0704 102.966C74.8132 103.06 74.4859 103.247 74.0885 103.481L74.7665 100.929L75.0938 100.976H82.8557L82.2712 103.481C82.1543 103.223 81.9439 103.036 81.6633 102.919C81.3828 102.802 81.0788 102.755 80.7515 102.755C80.4944 102.755 80.2606 102.779 80.0268 102.849V109.847C80.0268 110.386 80.0969 110.831 80.2138 111.111C80.3307 111.416 80.5177 111.673 80.7983 111.907V111.977H76.2628V111.907C76.5433 111.743 76.7303 111.533 76.8238 111.252C76.9174 110.971 76.9641 110.62 76.9641 110.222V109.847L76.9408 109.824Z" fill="#575756"/>
<path d="M86.3625 106.945L83.8376 102.17C83.6505 101.796 83.4635 101.538 83.3466 101.398C83.2297 101.257 83.0427 101.093 82.8323 100.976H86.7132L88.6537 104.932L89.6122 102.966C89.7057 102.708 89.7993 102.474 89.846 102.287C89.9162 102.1 89.9395 101.936 89.9395 101.819C89.9395 101.632 89.8928 101.468 89.8226 101.327C89.7525 101.187 89.6356 101.07 89.4486 100.976H92.4645L89.4486 106.968V109.777C89.4486 110.222 89.472 110.573 89.5421 110.83C89.659 111.252 89.8694 111.603 90.1967 111.907V111.977H85.6378V111.907C85.8949 111.767 86.082 111.533 86.1989 111.252C86.3158 110.971 86.3625 110.667 86.3625 110.339V106.945Z" fill="#575756"/>
<path d="M96.626 110.386C96.626 110.737 96.6727 111.041 96.7896 111.299C96.9065 111.556 97.0936 111.743 97.3507 111.884V111.954H92.8386V111.884C93.0957 111.72 93.2828 111.509 93.3997 111.228C93.4932 110.948 93.5399 110.667 93.5399 110.362V102.802C93.5399 102.31 93.5165 101.959 93.4464 101.725C93.3529 101.398 93.1425 101.14 92.8386 100.929H97.3507C97.0936 101.07 96.9065 101.304 96.7896 101.585C96.6727 101.889 96.626 102.17 96.626 102.428V105.868L98.7535 103.2C98.8937 103.013 99.034 102.825 99.1977 102.638C99.3847 102.357 99.4782 102.1 99.4782 101.866C99.4782 101.679 99.4315 101.491 99.338 101.351C99.2444 101.187 99.0808 101.047 98.8236 100.929H102.938L99.2444 105.377L102.354 110.269C102.494 110.503 102.634 110.737 102.798 110.971C103.032 111.322 103.312 111.626 103.593 111.837V111.907H102.564C101.232 111.907 100.32 111.814 99.8757 111.65C99.4081 111.486 98.9873 111.041 98.6132 110.362L96.6494 106.992V110.316L96.626 110.386Z" fill="#575756"/>
<path d="M104.645 109.847V103.153C104.645 102.451 104.598 101.983 104.528 101.725C104.458 101.468 104.271 101.21 103.944 100.953H108.409C108.105 101.164 107.895 101.444 107.825 101.702C107.754 101.959 107.708 102.404 107.708 103.013V109.918C107.708 110.526 107.754 110.971 107.848 111.205C107.941 111.462 108.129 111.697 108.409 111.907H103.944C104.248 111.697 104.458 111.416 104.551 111.065C104.598 110.854 104.645 110.456 104.645 109.847Z" fill="#575756"/>
<path d="M122.366 111.954L127.37 102.545L125.897 102.498C125.429 102.498 124.961 102.568 124.494 102.708C124.026 102.849 123.559 103.059 123.138 103.317L124.026 100.929H131.695L126.762 110.199C127.089 110.199 127.51 110.222 128.024 110.269C128.538 110.316 128.842 110.339 128.983 110.339C129.591 110.339 130.152 110.269 130.619 110.128C131.11 109.988 131.671 109.707 132.303 109.309L131.391 111.954H122.366Z" fill="#575756"/>
<path d="M133.705 109.45L135.95 102.942C135.95 102.942 135.996 102.755 136.067 102.521C136.137 102.287 136.16 102.1 136.16 101.936C136.16 101.749 136.113 101.561 136.02 101.421C135.926 101.257 135.763 101.117 135.529 100.953H139.597L142.847 109.684C143.034 110.245 143.221 110.667 143.408 110.948C143.595 111.228 143.852 111.533 144.226 111.86V111.931H139.176V111.86C139.62 111.603 139.854 111.275 139.854 110.901C139.854 110.737 139.854 110.62 139.854 110.55C139.854 110.479 139.807 110.339 139.737 110.175L139.223 108.583H135.903L135.412 109.988C135.365 110.128 135.318 110.292 135.272 110.479C135.225 110.667 135.202 110.807 135.178 110.924C135.178 111.111 135.225 111.252 135.318 111.392C135.412 111.533 135.576 111.673 135.786 111.837V111.907H132.373V111.837C132.723 111.556 133.004 111.158 133.214 110.69C133.331 110.456 133.495 110.011 133.705 109.379V109.45ZM136.37 107.062H138.662L137.493 103.715L136.37 107.062Z" fill="#575756"/>
<path d="M148.855 107.226V110.316C148.855 110.737 148.925 111.065 149.042 111.322C149.159 111.556 149.346 111.767 149.58 111.884V111.954H145.091V111.884C145.371 111.72 145.559 111.509 145.652 111.252C145.746 110.994 145.792 110.69 145.792 110.339V102.755C145.792 102.264 145.746 101.913 145.675 101.655C145.605 101.398 145.418 101.164 145.114 100.976H150.562C151.497 100.953 152.268 101.187 152.853 101.678C153.484 102.217 153.788 102.966 153.788 103.902C153.788 104.323 153.671 104.721 153.461 105.119C153.133 105.704 152.596 106.173 151.824 106.57L153.975 110.222C154.209 110.596 154.396 110.854 154.513 110.994C154.793 111.369 155.097 111.673 155.378 111.931L153.484 112.071H152.572C152.151 112.071 151.801 112.001 151.567 111.86C151.31 111.72 151.076 111.439 150.866 111.018L148.878 107.273L148.855 107.226ZM148.855 106.336C149.393 106.266 149.814 106.032 150.164 105.658C150.492 105.283 150.655 104.838 150.655 104.323C150.655 103.809 150.538 103.387 150.281 103.083C149.977 102.732 149.556 102.545 148.995 102.545H148.855V106.36V106.336Z" fill="#575756"/>
<path d="M155.284 111.954L160.287 102.545L158.814 102.498C158.347 102.498 157.879 102.568 157.412 102.708C156.944 102.849 156.477 103.059 156.056 103.317L156.944 100.929H164.613L159.68 110.199C160.007 110.199 160.428 110.222 160.942 110.269C161.456 110.316 161.76 110.339 161.901 110.339C162.508 110.339 163.069 110.269 163.537 110.128C164.028 109.988 164.589 109.707 165.22 109.309L164.309 111.954H155.284Z" fill="#575756"/>
<path d="M166.6 109.45L168.844 102.942C168.844 102.942 168.891 102.755 168.961 102.521C169.031 102.287 169.055 102.1 169.055 101.936C169.055 101.749 169.008 101.561 168.914 101.421C168.821 101.257 168.657 101.117 168.423 100.953H172.491L175.741 109.684C175.928 110.245 176.115 110.667 176.302 110.948C176.489 111.228 176.746 111.533 177.12 111.86V111.931H172.07V111.86C172.515 111.603 172.748 111.275 172.748 110.901C172.748 110.737 172.748 110.62 172.748 110.55C172.748 110.479 172.702 110.339 172.632 110.175L172.117 108.583H168.797L168.306 109.988C168.26 110.128 168.213 110.292 168.166 110.479C168.119 110.667 168.096 110.807 168.073 110.924C168.073 111.111 168.119 111.252 168.213 111.392C168.306 111.533 168.47 111.673 168.68 111.837V111.907H165.267V111.837C165.618 111.556 165.898 111.158 166.109 110.69C166.226 110.456 166.389 110.011 166.6 109.379V109.45ZM169.265 107.062H171.556L170.387 103.715L169.265 107.062Z" fill="#575756"/>
<path d="M182.708 100.929C184.438 100.929 185.841 101.421 186.893 102.404C187.945 103.387 188.459 104.675 188.459 106.29C188.459 107.905 188.038 109.145 187.173 110.152C186.145 111.345 184.648 111.954 182.685 111.954H177.681V111.884C178.009 111.673 178.196 111.439 178.289 111.158C178.359 110.877 178.406 110.409 178.406 109.754V102.591C178.406 102.264 178.383 101.983 178.313 101.749C178.196 101.374 177.985 101.117 177.705 100.953H182.755L182.708 100.929ZM181.469 110.128C181.469 110.128 181.726 110.175 181.936 110.199C182.147 110.222 182.334 110.245 182.498 110.269C183.386 110.269 184.064 109.918 184.532 109.239C184.999 108.537 185.233 107.6 185.233 106.383C185.233 105.072 184.952 104.089 184.391 103.457C183.924 102.919 183.292 102.662 182.474 102.662C182.311 102.662 182.194 102.662 182.1 102.662C182.007 102.662 181.796 102.708 181.445 102.779V110.128H181.469Z" fill="#575756"/>
<path d="M188.88 111.954L193.883 102.545L192.41 102.498C191.943 102.498 191.475 102.568 191.008 102.708C190.54 102.849 190.072 103.059 189.652 103.317L190.54 100.929H198.208L193.275 110.199C193.603 110.199 194.023 110.222 194.538 110.269C195.052 110.316 195.356 110.339 195.496 110.339C196.104 110.339 196.665 110.269 197.133 110.128C197.624 109.988 198.185 109.707 198.816 109.309L197.904 111.954H188.88Z" fill="#575756"/>
<path d="M200.546 109.45L202.791 102.942C202.791 102.942 202.837 102.755 202.908 102.521C202.978 102.287 203.001 102.1 203.001 101.936C203.001 101.749 202.954 101.561 202.861 101.421C202.767 101.257 202.604 101.117 202.37 100.953H206.438L209.687 109.684C209.875 110.245 210.062 110.667 210.249 110.948C210.436 111.228 210.693 111.533 211.067 111.86V111.931H206.017V111.86C206.461 111.603 206.695 111.275 206.695 110.901C206.695 110.737 206.695 110.62 206.695 110.55C206.695 110.479 206.648 110.339 206.578 110.175L206.064 108.583H202.744L202.253 109.988C202.206 110.128 202.159 110.292 202.113 110.479C202.066 110.667 202.043 110.807 202.019 110.924C202.019 111.111 202.066 111.252 202.159 111.392C202.253 111.533 202.417 111.673 202.627 111.837V111.907H199.214V111.837C199.564 111.556 199.845 111.158 200.055 110.69C200.172 110.456 200.336 110.011 200.546 109.379V109.45ZM203.211 107.062H205.503L204.334 103.715L203.211 107.062Z" fill="#575756"/>
<path d="M212.516 109.918V103.645C212.516 102.942 212.446 102.428 212.329 102.123C212.212 101.819 211.955 101.444 211.534 101V100.929H215.018L220.138 107.694V103.106C220.138 102.638 220.115 102.31 220.044 102.076C219.951 101.655 219.741 101.281 219.413 100.953H222.616C222.359 101.164 222.172 101.468 222.055 101.819C221.938 102.17 221.868 102.521 221.868 102.872V112.282H221.798C221.4 112.282 220.863 112.118 220.185 111.814C219.296 111.392 218.618 110.877 218.127 110.222L214.293 105.072H214.223V109.918C214.223 110.386 214.293 110.784 214.41 111.088C214.527 111.392 214.714 111.65 214.971 111.884V111.954H211.721V111.884C211.955 111.673 212.142 111.439 212.283 111.111C212.399 110.807 212.47 110.409 212.47 109.918H212.516Z" fill="#575756"/>
<path d="M224.112 109.847V103.153C224.112 102.451 224.066 101.983 223.996 101.725C223.925 101.468 223.738 101.21 223.411 100.953H227.876C227.573 101.164 227.362 101.444 227.292 101.702C227.222 101.959 227.175 102.404 227.175 103.013V109.918C227.175 110.526 227.222 110.971 227.315 111.205C227.409 111.462 227.596 111.697 227.876 111.907H223.411C223.715 111.697 223.925 111.416 224.019 111.065C224.066 110.854 224.112 110.456 224.112 109.847Z" fill="#575756"/>
<path d="M229.794 109.45L232.038 102.942C232.038 102.942 232.085 102.755 232.155 102.521C232.225 102.287 232.248 102.1 232.248 101.936C232.248 101.749 232.202 101.561 232.108 101.421C232.015 101.257 231.851 101.117 231.617 100.953H235.685L238.935 109.684C239.122 110.245 239.309 110.667 239.496 110.948C239.683 111.228 239.94 111.533 240.314 111.86V111.931H235.264V111.86C235.708 111.603 235.942 111.275 235.942 110.901C235.942 110.737 235.942 110.62 235.942 110.55C235.942 110.479 235.896 110.339 235.825 110.175L235.311 108.583H231.991L231.5 109.988C231.453 110.128 231.407 110.292 231.36 110.479C231.313 110.667 231.29 110.807 231.266 110.924C231.266 111.111 231.313 111.252 231.407 111.392C231.5 111.533 231.664 111.673 231.874 111.837V111.907H228.461V111.837C228.812 111.556 229.092 111.158 229.303 110.69C229.419 110.456 229.583 110.011 229.794 109.379V109.45ZM232.459 107.062H234.75L233.581 103.715L232.459 107.062Z" fill="#575756"/>
<path d="M36.3779 129.79V129.72L41.007 123.306C40.7966 123.306 40.4459 123.259 39.9783 123.213C39.5107 123.189 39.1834 123.166 38.9964 123.166C38.5756 123.166 38.2015 123.213 37.8742 123.306C37.5469 123.4 37.243 123.564 36.939 123.774L37.7339 122.066H43.6722V122.136L39.2536 128.479C39.651 128.479 40.0485 128.479 40.4459 128.549C41.4746 128.666 41.9889 128.713 42.0123 128.713C42.4331 128.713 42.8072 128.666 43.1579 128.549C43.5086 128.432 43.906 128.245 44.3502 127.964L43.4618 129.79H36.3546H36.3779Z" fill="#575756"/>
<path d="M49.3767 124.102C49.3767 123.306 49.7508 122.698 50.4756 122.323C51.06 122.019 51.8082 121.878 52.7433 121.878C53.1642 121.878 53.4915 121.878 53.7486 121.925C54.0058 121.949 54.2864 122.019 54.5435 122.089V123.517C53.9357 123.166 53.2109 123.002 52.416 123.002C51.9484 123.002 51.5744 123.072 51.3172 123.213C51.06 123.353 50.9198 123.564 50.9198 123.845C50.9665 124.196 51.3406 124.477 52.0186 124.734C53.3979 125.226 54.0993 125.483 54.1461 125.506C54.5435 125.694 54.8475 125.951 55.0812 126.279C55.315 126.607 55.4319 126.958 55.4319 127.379C55.4319 128.245 55.0111 128.924 54.1695 129.392C53.4681 129.79 52.6498 130.001 51.7147 130.001C50.8964 130.001 50.1716 129.86 49.4936 129.603L48.9325 127.988C49.3534 128.268 49.8209 128.503 50.382 128.666C50.9431 128.83 51.4809 128.924 51.9952 128.924C52.5329 128.924 53.0005 128.83 53.3278 128.666C53.6785 128.503 53.8655 128.245 53.8889 127.917C53.8889 127.566 53.7253 127.262 53.3746 127.028C53.2811 126.958 52.5329 126.653 51.1769 126.138C50.5925 125.904 50.1483 125.67 49.8911 125.413C49.517 125.062 49.33 124.64 49.33 124.102H49.3767Z" fill="#575756"/>
<path d="M56.9516 128.432V123.517C56.9516 123.166 56.9516 122.932 56.8814 122.791C56.7879 122.534 56.6009 122.323 56.3203 122.183V122.113H57.2087C57.8166 122.113 58.2141 122.019 58.4011 121.808H58.4712V128.081C58.4712 128.573 58.4946 128.947 58.5647 129.158C58.6349 129.392 58.8219 129.556 59.1258 129.72V129.79H56.3203V129.72C56.5775 129.579 56.7412 129.415 56.8113 129.181C56.8814 128.947 56.9282 128.713 56.9282 128.409L56.9516 128.432ZM57.6296 118.999C57.9101 118.999 58.1673 119.093 58.3777 119.304C58.5881 119.514 58.6816 119.748 58.6816 120.029C58.6816 120.334 58.5881 120.591 58.3777 120.778C58.1673 120.989 57.9335 121.083 57.6296 121.083C57.3256 121.083 57.0919 120.989 56.9048 120.778C56.6944 120.568 56.6009 120.334 56.6009 120.029C56.6009 119.772 56.6944 119.514 56.9048 119.304C57.1152 119.093 57.349 118.976 57.6296 118.976V118.999Z" fill="#575756"/>
<path d="M60.2013 125.881C60.2013 124.804 60.552 123.891 61.23 123.142C62.0015 122.276 63.0769 121.855 64.4095 121.855C65.4616 121.855 66.35 122.206 67.0514 122.908C67.7761 123.611 68.1268 124.523 68.1268 125.694H62.0015C62.0015 126.466 62.2119 127.145 62.6327 127.73C63.1704 128.432 63.9419 128.83 64.9472 128.924H65.3681C65.8357 128.924 66.3032 128.854 66.7942 128.713C67.2852 128.573 67.7294 128.362 68.1034 128.058L67.3085 129.603C66.9345 129.743 66.537 129.86 66.163 129.93C65.7889 130.001 65.3914 130.047 64.994 130.047C63.6848 130.047 62.5859 129.696 61.6975 129.017C60.6922 128.245 60.2013 127.215 60.2013 125.904V125.881ZM62.0716 124.687H66.3968C66.35 124.125 66.1162 123.704 65.7188 123.4C65.3213 123.096 64.8537 122.955 64.2926 122.955C63.7315 122.955 63.2406 123.119 62.8197 123.423C62.3989 123.728 62.1418 124.149 62.0716 124.687Z" fill="#575756"/>
<path d="M68.8516 125.881C68.8516 124.898 69.1789 124.032 69.8569 123.259C70.6284 122.347 71.6571 121.878 72.9429 121.878C73.3637 121.878 73.7846 121.949 74.2054 122.113C74.6262 122.276 75.0237 122.51 75.4211 122.838V120.1C75.4211 119.772 75.4211 119.561 75.351 119.444C75.2808 119.233 75.0704 119.023 74.7665 118.836H76.0991C76.2628 118.812 76.403 118.789 76.5433 118.742C76.6836 118.695 76.7771 118.625 76.8472 118.508V128.549C76.8706 128.807 76.9174 129.041 77.0109 129.252C77.1044 129.439 77.2914 129.626 77.572 129.766V129.837H75.4211V125.46C75.4211 124.664 75.1873 124.032 74.6963 123.611C74.2755 123.213 73.7378 123.025 73.0598 123.025C72.3818 123.025 71.8207 123.259 71.3298 123.751C70.8154 124.289 70.5349 125.015 70.5349 125.928C70.5349 126.841 70.8388 127.566 71.4466 128.151C72.0077 128.69 72.6624 128.947 73.4573 128.947C74.0183 128.947 74.5093 128.783 74.9535 128.456L73.9248 129.954C73.7144 129.977 73.5742 130.001 73.504 130.001C73.4339 130.001 73.2702 130.001 73.0598 130.001C71.9844 130.001 71.0492 129.72 70.3011 129.158C69.3191 128.432 68.8048 127.332 68.8048 125.881H68.8516Z" fill="#575756"/>
<path d="M78.1331 129.79V129.72L82.7621 123.306C82.5517 123.306 82.201 123.259 81.7335 123.213C81.2659 123.189 80.9386 123.166 80.7515 123.166C80.3307 123.166 79.9566 123.213 79.6293 123.306C79.302 123.4 78.9981 123.564 78.6942 123.774L79.4891 122.066H85.4274V122.136L81.0087 128.479C81.4062 128.479 81.8036 128.479 82.201 128.549C83.2297 128.666 83.7441 128.713 83.7674 128.713C84.1883 128.713 84.5623 128.666 84.913 128.549C85.2637 128.432 85.6612 128.245 86.1054 127.964L85.2169 129.79H78.1097H78.1331Z" fill="#575756"/>
<path d="M87.0405 128.432V123.517C87.0405 123.166 87.0405 122.932 86.9704 122.791C86.8769 122.534 86.6898 122.323 86.4093 122.183V122.113H87.2977C87.9056 122.113 88.303 122.019 88.49 121.808H88.5602V128.081C88.5602 128.573 88.5835 128.947 88.6537 129.158C88.7238 129.392 88.9109 129.556 89.2148 129.72V129.79H86.4093V129.72C86.6665 129.579 86.8301 129.415 86.9003 129.181C86.9704 128.947 87.0171 128.713 87.0171 128.409L87.0405 128.432ZM87.7185 118.999C87.9991 118.999 88.2562 119.093 88.4667 119.304C88.6771 119.514 88.7706 119.748 88.7706 120.029C88.7706 120.334 88.6771 120.591 88.4667 120.778C88.2562 120.989 88.0224 121.083 87.7185 121.083C87.4146 121.083 87.1808 120.989 86.9938 120.778C86.7834 120.568 86.6898 120.334 86.6898 120.029C86.6898 119.772 86.7834 119.514 86.9938 119.304C87.2042 119.093 87.438 118.976 87.7185 118.976V118.999Z" fill="#575756"/>
<path d="M91.0384 128.526V120.193C91.0384 119.819 90.9916 119.538 90.9215 119.351C90.8513 119.163 90.6877 118.976 90.4305 118.812H91.693C92.1138 118.789 92.371 118.672 92.5112 118.484V128.62C92.9087 128.713 93.1892 128.783 93.3763 128.83C93.5633 128.854 93.7503 128.877 93.914 128.877C94.7556 128.877 95.4336 128.643 95.9246 128.198C96.5091 127.66 96.813 126.841 96.813 125.764C96.813 124.851 96.5558 124.172 96.0181 123.728C95.5739 123.353 95.0128 123.166 94.3582 123.166C94.0776 123.166 93.8205 123.189 93.5633 123.259C93.3061 123.33 93.1191 123.4 92.9554 123.517L93.8205 122.089C94.0075 122.042 94.2179 121.995 94.4283 121.972C94.6621 121.949 94.8492 121.925 95.0362 121.925C96.0882 121.925 96.9299 122.3 97.5611 123.072C98.1924 123.845 98.5197 124.828 98.5197 126.021C98.5197 127.215 98.0755 128.198 97.1871 128.947C96.2987 129.696 95.1063 130.047 93.6101 130.047C93.0723 130.047 92.5112 130.001 91.9268 129.93C91.4592 129.86 90.9916 129.79 90.5474 129.72C90.7344 129.626 90.8747 129.462 90.9215 129.275C90.9916 129.088 91.015 128.877 91.015 128.69V128.549L91.0384 128.526Z" fill="#575756"/>
<path d="M106.305 130.001C106.001 130.305 105.814 130.562 105.744 130.773C105.674 130.984 105.627 131.265 105.627 131.616C105.627 131.709 105.697 131.803 105.814 131.943C105.931 132.06 106.071 132.131 106.211 132.131C106.656 132.131 107.006 132.06 107.287 131.896L107.03 132.646C106.749 132.809 106.422 132.88 106.095 132.88C105.674 132.88 105.323 132.763 105.042 132.528C104.739 132.294 104.598 131.99 104.598 131.616C104.598 131.241 104.692 130.89 104.855 130.586C105.019 130.281 105.253 130.071 105.51 129.907C104.575 129.673 104.107 129.111 104.107 128.245V125.647C103.757 125.834 103.219 126.021 102.471 126.209C101.372 126.466 100.811 126.911 100.811 127.59C100.811 128.034 100.974 128.362 101.302 128.596C101.629 128.83 102.05 128.947 102.588 128.947C102.775 128.947 102.962 128.947 103.172 128.9C103.383 128.854 103.616 128.807 103.85 128.737L102.868 129.977C102.658 129.977 102.518 130.024 102.424 130.024C102.33 130.024 102.19 130.024 102.027 130.024C101.162 130.024 100.46 129.813 99.9458 129.369C99.4315 128.924 99.1509 128.385 99.1509 127.73C99.1509 127.215 99.2912 126.794 99.5717 126.466C99.8055 126.185 100.156 125.928 100.647 125.717C100.694 125.717 101.395 125.506 102.751 125.155C103.242 125.038 103.593 124.874 103.827 124.711C103.897 124.664 103.967 124.57 104.037 124.453C104.107 124.313 104.131 124.172 104.131 124.032C104.131 123.704 103.944 123.447 103.546 123.236C103.242 123.096 102.915 123.025 102.541 123.025C102.167 123.025 101.746 123.096 101.302 123.236C101.021 123.33 100.671 123.494 100.296 123.681L101.395 122.019C101.395 122.019 101.652 122.019 101.91 121.972C102.167 121.949 102.377 121.925 102.518 121.925C103.429 121.925 104.177 122.113 104.715 122.487C105.346 122.932 105.674 123.587 105.674 124.477V127.402C105.674 127.941 105.767 128.339 105.978 128.573C106.188 128.807 106.562 128.924 107.1 128.924L106.352 130.001H106.305Z" fill="#575756"/>
<path d="M113.506 128.432L111.589 123.47C111.402 123.025 111.285 122.791 111.285 122.768C111.144 122.51 110.934 122.3 110.7 122.159V122.089H111.752C111.893 122.089 112.033 122.066 112.196 122.042C112.36 122.042 112.524 121.972 112.641 121.878H112.711C112.711 122.089 112.758 122.23 112.758 122.323C112.758 122.393 112.804 122.487 112.874 122.604L114.862 127.847L116.475 123.751C116.522 123.611 116.568 123.47 116.615 123.283C116.662 123.096 116.709 122.932 116.709 122.791C116.709 122.51 116.545 122.3 116.241 122.136V122.066H118.462V122.3C118.462 122.44 118.509 122.627 118.602 122.908C118.696 123.189 118.789 123.447 118.906 123.728L120.356 127.8L121.969 123.821C122.016 123.657 122.086 123.493 122.133 123.33C122.203 123.142 122.226 123.002 122.226 122.885C122.226 122.557 122.039 122.3 121.688 122.136V122.066H123.933L120.613 130.071C120.356 129.907 120.075 129.766 119.818 129.626C119.514 129.392 119.257 129.041 119.093 128.549L117.457 124.243L115.189 130.094C114.628 129.86 114.207 129.603 113.95 129.298C113.786 129.111 113.623 128.83 113.459 128.432H113.506Z" fill="#575756"/>
<path d="M129.591 127.426V121.012C129.591 120.31 129.567 119.842 129.52 119.631C129.427 119.257 129.216 118.999 128.889 118.859V118.789H132.794C133.962 118.789 134.851 119.093 135.459 119.678C135.996 120.193 136.277 120.895 136.277 121.761C136.207 122.347 135.973 122.862 135.576 123.306C135.108 123.798 134.477 124.196 133.635 124.453L136.183 127.636C136.347 127.871 136.628 128.128 136.978 128.479C137.469 128.947 138.054 129.369 138.708 129.79H137.002C136.558 129.79 136.183 129.72 135.926 129.556C135.646 129.392 135.389 129.158 135.155 128.807L133.214 126.396L131.671 124.079C132.466 123.962 133.121 123.704 133.635 123.353C134.266 122.885 134.594 122.3 134.594 121.551C134.594 120.942 134.36 120.497 133.892 120.193C133.495 119.936 133.004 119.819 132.373 119.819C132.162 119.819 131.999 119.819 131.882 119.842C131.765 119.842 131.578 119.889 131.297 119.959V127.473C131.297 128.245 131.344 128.76 131.414 129.064C131.508 129.345 131.695 129.579 132.022 129.766H128.866C129.193 129.603 129.38 129.369 129.474 129.017C129.544 128.666 129.591 128.128 129.591 127.426Z" fill="#575756"/>
<path d="M137.867 129.79V129.72L142.496 123.306C142.285 123.306 141.935 123.259 141.467 123.213C141 123.189 140.672 123.166 140.485 123.166C140.064 123.166 139.69 123.213 139.363 123.306C139.036 123.4 138.732 123.564 138.428 123.774L139.223 122.066H145.161V122.136L140.742 128.479C141.14 128.479 141.537 128.479 141.935 128.549C142.963 128.666 143.478 128.713 143.501 128.713C143.922 128.713 144.296 128.666 144.647 128.549C144.997 128.432 145.395 128.245 145.839 127.964L144.951 129.79H137.843H137.867Z" fill="#575756"/>
<path d="M146.026 125.881C146.026 124.804 146.353 123.891 147.055 123.142C147.826 122.276 148.902 121.855 150.234 121.855C151.286 121.855 152.175 122.206 152.876 122.908C153.601 123.611 153.952 124.523 153.952 125.694H147.826C147.826 126.466 148.037 127.145 148.458 127.73C148.995 128.432 149.767 128.83 150.772 128.924H151.193C151.66 128.924 152.128 128.854 152.619 128.713C153.11 128.573 153.554 128.362 153.928 128.058L153.133 129.603C152.759 129.743 152.362 129.86 151.988 129.93C151.614 130.001 151.216 130.047 150.819 130.047C149.51 130.047 148.411 129.696 147.522 129.017C146.517 128.245 146.026 127.215 146.026 125.904V125.881ZM147.896 124.687H152.222C152.175 124.125 151.941 123.704 151.544 123.4C151.146 123.096 150.679 122.955 150.117 122.955C149.556 122.955 149.065 123.119 148.645 123.423C148.224 123.728 147.967 124.149 147.896 124.687Z" fill="#575756"/>
<path d="M154.91 124.102C154.91 123.306 155.284 122.698 156.009 122.323C156.593 122.019 157.342 121.878 158.277 121.878C158.698 121.878 159.025 121.878 159.282 121.925C159.539 121.949 159.82 122.019 160.077 122.089V123.517C159.469 123.166 158.744 123.002 157.949 123.002C157.482 123.002 157.108 123.072 156.851 123.213C156.593 123.353 156.453 123.564 156.453 123.845C156.5 124.196 156.874 124.477 157.552 124.734C158.931 125.226 159.633 125.483 159.68 125.506C160.077 125.694 160.381 125.951 160.615 126.279C160.848 126.607 160.965 126.958 160.965 127.379C160.965 128.245 160.545 128.924 159.703 129.392C159.002 129.79 158.183 130.001 157.248 130.001C156.43 130.001 155.705 129.86 155.027 129.603L154.466 127.988C154.887 128.268 155.354 128.503 155.915 128.666C156.477 128.83 157.014 128.924 157.529 128.924C158.066 128.924 158.534 128.83 158.861 128.666C159.212 128.503 159.399 128.245 159.422 127.917C159.422 127.566 159.259 127.262 158.908 127.028C158.814 126.958 158.066 126.653 156.71 126.138C156.126 125.904 155.682 125.67 155.425 125.413C155.05 125.062 154.863 124.64 154.863 124.102H154.91Z" fill="#575756"/>
<path d="M161.269 129.79V129.72L165.898 123.306C165.688 123.306 165.337 123.259 164.87 123.213C164.402 123.189 164.075 123.166 163.888 123.166C163.467 123.166 163.093 123.213 162.766 123.306C162.438 123.4 162.134 123.564 161.83 123.774L162.625 122.066H168.564V122.136L164.145 128.479C164.542 128.479 164.94 128.479 165.337 128.549C166.366 128.666 166.88 128.713 166.904 128.713C167.324 128.713 167.699 128.666 168.049 128.549C168.4 128.432 168.797 128.245 169.242 127.964L168.353 129.79H161.246H161.269Z" fill="#575756"/>
<path d="M169.382 125.951C169.382 124.851 169.733 123.938 170.434 123.166C171.229 122.3 172.351 121.855 173.801 121.855C174.946 121.855 175.905 122.206 176.7 122.908C177.565 123.657 177.985 124.64 177.985 125.858C177.985 127.075 177.565 127.988 176.7 128.783C175.835 129.579 174.829 129.977 173.66 129.977C172.351 129.977 171.299 129.556 170.504 128.737C169.779 127.988 169.429 127.051 169.429 125.951H169.382ZM171.089 125.741C171.089 126.63 171.322 127.379 171.813 127.988C172.304 128.62 172.912 128.924 173.637 128.924H173.777C174.572 128.924 175.203 128.643 175.671 128.058C176.068 127.543 176.279 126.911 176.279 126.138C176.279 125.296 176.045 124.57 175.577 123.962C175.086 123.306 174.432 122.979 173.613 122.979C173.029 122.979 172.491 123.166 172.047 123.54C171.416 124.032 171.112 124.781 171.112 125.764L171.089 125.741Z" fill="#575756"/>
<path d="M180.651 128.432L178.734 123.47C178.546 123.025 178.43 122.791 178.43 122.768C178.289 122.51 178.079 122.3 177.845 122.159V122.089H178.897C179.037 122.089 179.178 122.066 179.341 122.042C179.505 122.042 179.669 121.972 179.786 121.878H179.856C179.856 122.089 179.902 122.23 179.902 122.323C179.902 122.393 179.949 122.487 180.019 122.604L182.007 127.847L183.62 123.751C183.667 123.611 183.713 123.47 183.76 123.283C183.807 123.096 183.854 122.932 183.854 122.791C183.854 122.51 183.69 122.3 183.386 122.136V122.066H185.607V122.3C185.607 122.44 185.654 122.627 185.747 122.908C185.841 123.189 185.934 123.447 186.051 123.728L187.501 127.8L189.114 123.821C189.161 123.657 189.231 123.493 189.277 123.33C189.348 123.142 189.371 123.002 189.371 122.885C189.371 122.557 189.184 122.3 188.833 122.136V122.066H191.078L187.758 130.071C187.501 129.907 187.22 129.766 186.963 129.626C186.659 129.392 186.402 129.041 186.238 128.549L184.602 124.243L182.334 130.094C181.773 129.86 181.352 129.603 181.095 129.298C180.931 129.111 180.767 128.83 180.604 128.432H180.651Z" fill="#575756"/>
<path d="M192.223 128.432V123.517C192.223 123.166 192.223 122.932 192.153 122.791C192.06 122.534 191.873 122.323 191.592 122.183V122.113H192.48C193.088 122.113 193.486 122.019 193.673 121.808H193.743V128.081C193.743 128.573 193.766 128.947 193.836 129.158C193.907 129.392 194.094 129.556 194.398 129.72V129.79H191.592V129.72C191.849 129.579 192.013 129.415 192.083 129.181C192.153 128.947 192.2 128.713 192.2 128.409L192.223 128.432ZM192.901 118.999C193.182 118.999 193.439 119.093 193.649 119.304C193.86 119.514 193.953 119.748 193.953 120.029C193.953 120.334 193.86 120.591 193.649 120.778C193.439 120.989 193.205 121.083 192.901 121.083C192.597 121.083 192.364 120.989 192.177 120.778C191.966 120.568 191.873 120.334 191.873 120.029C191.873 119.772 191.966 119.514 192.177 119.304C192.387 119.093 192.621 118.976 192.901 118.976V118.999Z" fill="#575756"/>
<path d="M195.496 125.881C195.496 124.804 195.824 123.891 196.525 123.142C197.297 122.276 198.372 121.855 199.705 121.855C200.757 121.855 201.645 122.206 202.346 122.908C203.071 123.611 203.422 124.523 203.422 125.694H197.297C197.297 126.466 197.507 127.145 197.928 127.73C198.465 128.432 199.237 128.83 200.242 128.924H200.663C201.131 128.924 201.598 128.854 202.089 128.713C202.58 128.573 203.024 128.362 203.398 128.058L202.604 129.603C202.23 129.743 201.832 129.86 201.458 129.93C201.084 130.001 200.687 130.047 200.289 130.047C198.98 130.047 197.881 129.696 196.993 129.017C195.987 128.245 195.496 127.215 195.496 125.904V125.881ZM197.367 124.687H201.692C201.645 124.125 201.411 123.704 201.014 123.4C200.616 123.096 200.149 122.955 199.588 122.955C199.027 122.955 198.536 123.119 198.115 123.423C197.694 123.728 197.437 124.149 197.367 124.687Z" fill="#575756"/>
<path d="M114.114 110.479V106.43C114.114 106.149 114.09 105.892 114.02 105.704C113.95 105.517 113.786 105.283 113.529 105.049V104.979H115.797C116.077 104.979 116.311 104.979 116.475 104.932C116.615 104.909 116.802 104.838 116.966 104.745H117.036V110.526C117.036 110.901 117.083 111.205 117.153 111.392C117.223 111.58 117.387 111.79 117.62 111.977V112.048H113.552V111.977C113.81 111.767 113.973 111.556 114.043 111.322C114.114 111.088 114.137 110.807 114.137 110.479H114.114ZM115.47 100.812C115.89 100.812 116.241 100.976 116.568 101.281C116.872 101.585 117.036 101.959 117.036 102.428C117.036 102.896 116.896 103.247 116.592 103.551C116.288 103.855 115.914 104.019 115.493 104.019C115.072 104.019 114.675 103.855 114.371 103.551C114.067 103.247 113.903 102.849 113.903 102.404C113.903 101.959 114.067 101.585 114.371 101.257C114.675 100.929 115.049 100.789 115.493 100.789L115.47 100.812Z" fill="#575756"/>
</svg>
